M48
; DRILL file {KiCad 6.0.7-f9a2dced07~116~ubuntu22.04.1} date Çrş 10 Ağu 2022 15:47:42
; FORMAT={-:-/ absolute / metric / decimal}
; #@! TF.CreationDate,2022-08-10T15:47:42+03:00
; #@! TF.GenerationSoftware,Kicad,Pcbnew,6.0.7-f9a2dced07~116~ubuntu22.04.1
; #@! TF.FileFunction,Plated,1,4,PTH
FMAT,2
METRIC
; #@! TA.AperFunction,Plated,PTH,ViaDrill
T1C0.400
; #@! TA.AperFunction,Plated,PTH,ViaDrill
T2C0.500
; #@! TA.AperFunction,Plated,PTH,ViaDrill
T3C0.750
; #@! TA.AperFunction,Plated,PTH,ComponentDrill
T4C0.800
; #@! TA.AperFunction,Plated,PTH,ComponentDrill
T5C1.000
; #@! TA.AperFunction,Plated,PTH,ComponentDrill
T6C1.200
; #@! TA.AperFunction,Plated,PTH,ViaDrill
T7C1.500
%
G90
G05
T1
X37.415Y-15.23
X37.415Y-22.85
X37.465Y-85.09
X37.465Y-89.535
X37.669Y-33.01
X39.32Y-32.375
X40.59Y-28.565
X41.225Y-15.23
X41.225Y-22.85
X41.275Y-69.215
X42.749Y-50.282
X45.085Y-77.877
X45.488Y-87.512
X45.854Y-114.22
X46.051Y-36.185
X46.99Y-66.04
X46.99Y-82.322
X47.575Y-15.23
X47.575Y-22.215
X47.575Y-28.565
X47.575Y-35.55
X48.273Y-133.296
X49.48Y-26.025
X50.369Y-118.735
X51.258Y-126.609
X52.705Y-85.09
X53.34Y-75.972
X53.81Y-155.41
X53.975Y-92.075
X54.56Y-42.535
X54.61Y-70.892
X55.245Y-90.17
X56.5Y-70.5
X59.005Y-27.93
X59.005Y-31.74
X59.005Y-104.775
X59.257Y-17.221
X59.69Y-37.465
X59.69Y-41.275
X60.91Y-116.205
X60.96Y-92.075
X61.545Y-23.485
X61.545Y-55.235
X62.147Y-106.1
X62.18Y-27.93
X62.23Y-75.565
X62.815Y-61.585
X63.45Y-22.215
X63.45Y-34.915
X63.45Y-48.25
X64.085Y-32.375
X64.135Y-119.38
X64.72Y-108.585
X65.355Y-46.98
X66.04Y-114.3
X66.625Y-48.25
X67.26Y-24.12
X67.26Y-26.025
X67.5Y-32.225
X67.945Y-17.145
X67.945Y-127.0
X69.165Y-57.775
X69.8Y-116.205
X69.8Y-149.215
X70.485Y-57.051
X71.07Y-31.105
X71.07Y-46.345
X71.07Y-104.775
X74.245Y-160.01
X74.295Y-96.52
X74.88Y-153.66
X75.55Y-96.259
X76.785Y-134.61
X79.325Y-31.105
X79.96Y-45.71
X80.595Y-144.77
X82.482Y-151.178
X82.904Y-81.373
X83.135Y-63.49
X83.77Y-54.6
X84.405Y-46.345
X84.405Y-56.777
X84.405Y-64.76
X84.405Y-150.485
X85.04Y-31.105
X85.04Y-122.545
X85.675Y-153.025
X85.675Y-156.835
X86.31Y-121.275
X86.36Y-118.745
X88.723Y-121.021
X89.612Y-105.273
X90.12Y-147.945
X90.628Y-101.717
X91.099Y-99.778
X91.38Y-132.695
X92.015Y-153.66
X92.075Y-81.373
X92.66Y-45.71
X93.285Y-140.96
X93.295Y-30.47
X94.057Y-102.352
X94.565Y-57.14
X94.565Y-65.395
X95.19Y-133.975
X96.47Y-60.315
X96.851Y-81.27
X98.375Y-31.105
X98.375Y-47.615
X99.01Y-140.96
X99.01Y-158.105
X99.391Y-126.101
X99.734Y-148.938
X100.28Y-61.039
X100.37Y-126.586
X101.58Y-106.25
X102.439Y-105.146
X102.947Y-100.955
X103.413Y-63.547
X103.455Y-43.805
X103.846Y-124.981
X104.001Y-62.738
X104.217Y-104.638
X104.35Y-100.73
X104.598Y-108.702
X104.625Y-58.945
X104.889Y-125.705
X105.388Y-59.59
X105.582Y-146.04
X105.995Y-108.067
X106.122Y-124.45
X106.294Y-106.743
X106.435Y-123.501
X106.63Y-31.105
X106.63Y-57.775
X107.265Y-45.71
X107.392Y-118.354
X107.621Y-155.069
X107.65Y-123.721
X108.535Y-60.315
X108.789Y-109.845
X109.259Y-61.585
X109.424Y-115.433
X109.685Y-62.765
X110.022Y-151.12
X110.44Y-63.49
X110.44Y-122.164
X110.922Y-110.751
X111.075Y-129.149
X111.456Y-95.494
X112.345Y-113.147
X112.701Y-143.004
X112.72Y-108.592
X112.765Y-129.535
X113.615Y-130.8
X113.704Y-108.416
X114.123Y-124.958
X114.497Y-107.724
X114.885Y-112.639
X114.885Y-115.052
X116.037Y-131.398
X116.062Y-107.33
X116.377Y-146.675
X116.79Y-126.355
X116.886Y-93.333
X116.915Y-111.758
X116.917Y-112.893
X116.917Y-115.814
X117.171Y-68.951
X117.171Y-75.936
X117.206Y-107.45
X117.425Y-83.81
X117.425Y-86.985
X117.647Y-153.025
X117.679Y-122.418
X118.06Y-85.08
X118.199Y-107.336
X118.589Y-86.261
X118.942Y-92.081
X118.95Y-69.84
X119.076Y-119.243
X119.194Y-107.438
X119.33Y-139.055
X119.847Y-108.195
X120.154Y-143.445
X120.212Y-93.512
X120.22Y-57.14
X120.822Y-139.055
X120.855Y-74.92
X121.092Y-113.589
X121.238Y-107.274
X121.816Y-94.659
X121.997Y-128.933
X122.505Y-95.621
X122.505Y-123.815
X123.14Y-83.192
X123.3Y-129.695
X123.356Y-93.993
X123.395Y-75.555
X124.029Y-98.796
X124.029Y-130.673
X124.41Y-83.192
X124.983Y-74.285
X126.315Y-131.435
X126.605Y-107.171
X127.966Y-156.581
X128.22Y-84.99
X128.442Y-149.85
X128.475Y-71.11
X129.26Y-84.99
X129.373Y-102.057
X130.125Y-121.275
X130.157Y-84.55
X130.173Y-102.655
X130.76Y-83.175
X130.982Y-139.69
X130.982Y-151.12
X130.982Y-155.565
X131.039Y-103.155
X131.395Y-105.4
X131.395Y-106.67
X131.707Y-146.186
X132.252Y-151.266
X132.752Y-144.028
X132.844Y-128.102
X133.232Y-112.733
X133.316Y-111.624
X133.844Y-110.072
X133.863Y-95.803
X134.065Y-128.826
X134.57Y-96.51
X134.57Y-108.321
X135.078Y-129.657
X135.427Y-154.93
X135.84Y-97.145
X137.11Y-71.745
X137.11Y-98.415
X138.888Y-131.054
X141.81Y-46.98
X142.19Y-59.934
X142.445Y-52.06
X143.08Y-33.855
X144.592Y-52.695
X144.73Y-68.062
X145.111Y-90.287
X146.0Y-66.665
X146.0Y-93.335
X148.286Y-129.784
X149.175Y-123.18
X149.225Y-22.225
X151.54Y-57.862
X151.588Y-65.395
X152.35Y-130.165
X152.35Y-151.12
X152.858Y-34.661
X152.945Y-24.838
X152.985Y-58.283
X152.985Y-65.268
X152.985Y-140.098
X152.985Y-147.718
X153.62Y-134.61
X153.67Y-24.13
X153.681Y-144.051
X154.471Y-33.478
X154.509Y-126.355
X155.421Y-127.079
X155.614Y-129.854
X156.911Y-124.976
X158.065Y-153.66
X158.319Y-59.68
X158.573Y-135.499
X158.7Y-146.04
X158.894Y-136.446
X158.954Y-107.813
X158.955Y-46.98
X158.955Y-52.06
X160.097Y-108.575
X160.225Y-33.645
X160.605Y-123.815
X160.86Y-52.695
X160.986Y-109.591
X161.875Y-140.325
X162.51Y-116.83
X162.764Y-110.48
X163.31Y-51.425
X163.78Y-135.88
X165.305Y-48.885
X165.685Y-128.895
X166.955Y-153.66
X167.59Y-128.26
X167.785Y-135.652
X168.225Y-152.39
X168.314Y-129.53
X168.604Y-136.376
X169.495Y-140.96
X170.003Y-110.353
X170.04Y-150.485
X170.13Y-144.77
X170.765Y-149.215
X171.162Y-109.292
X171.96Y-108.277
X172.035Y-132.07
X172.035Y-133.34
X172.035Y-134.61
X172.035Y-139.69
X172.045Y-135.831
X172.104Y-136.829
X172.124Y-138.42
X172.225Y-106.987
X173.137Y-149.901
X173.305Y-159.375
X173.645Y-152.105
X173.935Y-132.065
X174.261Y-158.173
X174.385Y-152.776
X174.415Y-159.161
X174.66Y-133.256
X174.946Y-153.608
X175.109Y-134.341
X175.834Y-135.428
X175.941Y-153.706
X177.025Y-136.515
X177.66Y-138.42
X177.839Y-147.945
X177.839Y-149.215
X177.839Y-150.485
X177.839Y-151.755
X178.385Y-52.695
X178.385Y-153.025
X178.474Y-140.325
X179.655Y-53.965
X181.56Y-43.17
X181.56Y-55.235
X181.56Y-74.92
X184.354Y-45.964
X184.735Y-55.235
X185.37Y-132.07
X186.005Y-53.965
X186.64Y-52.695
X187.275Y-104.13
X188.545Y-104.13
X190.45Y-139.055
X191.72Y-57.775
X191.72Y-106.035
X191.72Y-130.165
X191.72Y-139.055
X192.427Y-139.762
X193.186Y-110.052
X193.625Y-59.045
X194.006Y-128.133
X194.26Y-110.61
X194.26Y-135.88
X194.895Y-126.736
X195.53Y-137.15
X196.165Y-138.42
X196.381Y-139.644
X196.8Y-100.32
X197.435Y-104.765
X197.601Y-106.275
X197.726Y-131.968
X198.451Y-131.181
X210.135Y-136.515
X211.405Y-141.595
X212.04Y-136.515
X215.265Y-95.38
X215.265Y-100.46
X215.265Y-105.54
X215.265Y-110.62
X216.485Y-52.06
X216.85Y-125.375
X216.889Y-135.111
X216.929Y-130.071
X217.0Y-120.0
X222.7Y-45.19
X237.5Y-95.5
X237.5Y-100.5
X237.5Y-105.5
X237.5Y-110.5
X237.5Y-121.0
X237.5Y-126.5
X237.5Y-131.5
X237.5Y-136.5
X239.345Y-46.98
X241.885Y-49.52
X247.465Y-55.35
X247.5Y-106.5
X249.0Y-106.5
T2
X38.05Y-26.66
X48.26Y-80.036
X55.195Y-119.624
X55.195Y-131.943
X59.005Y-107.315
X61.595Y-127.0
X62.815Y-120.015
X68.276Y-156.962
X69.8Y-118.745
X71.07Y-43.805
X71.07Y-107.315
X72.975Y-27.295
X74.245Y-156.835
X77.609Y-144.77
X78.055Y-130.8
X79.96Y-138.42
X79.96Y-151.755
X81.865Y-42.535
X83.77Y-138.42
X84.405Y-43.805
X85.04Y-28.565
X85.04Y-130.165
X85.675Y-159.375
X86.056Y-77.968
X90.12Y-149.85
X91.009Y-77.841
X92.66Y-139.69
X93.041Y-103.876
X95.2Y-42.535
X95.454Y-77.968
X96.978Y-109.21
X98.185Y-153.66
X98.375Y-28.565
X98.375Y-43.805
X98.375Y-139.055
X99.834Y-154.699
X104.312Y-158.74
X105.582Y-150.485
X106.692Y-116.765
X107.265Y-42.535
X108.789Y-107.94
X111.932Y-151.12
X113.203Y-156.2
X114.06Y-95.078
X118.282Y-150.485
X118.695Y-115.56
X120.822Y-159.375
X122.882Y-136.669
X123.997Y-153.66
X125.267Y-158.74
X125.902Y-142.865
X126.198Y-99.821
X126.442Y-108.258
X126.95Y-81.905
X127.807Y-146.675
X132.284Y-52.822
X134.57Y-135.88
X136.062Y-153.025
X136.729Y-140.833
X147.27Y-60.95
X149.81Y-134.61
X149.81Y-138.42
X149.81Y-142.23
X149.81Y-146.04
X152.096Y-29.708
X159.335Y-137.785
X163.78Y-60.95
X166.955Y-123.18
X169.495Y-142.865
X169.75Y-29.835
X171.4Y-121.275
X186.64Y-143.5
X189.18Y-130.165
X192.355Y-135.88
X192.99Y-113.02
X193.945Y-100.623
X201.565Y-101.892
X205.055Y-128.895
X209.5Y-137.785
X213.31Y-133.975
X219.5Y-118.5
X219.5Y-129.0
X219.5Y-134.0
X219.583Y-123.917
X219.71Y-92.84
X219.71Y-97.92
X219.71Y-103.0
X219.71Y-108.08
X227.28Y-41.265
X244.29Y-37.57
X246.195Y-44.555
T3
X46.94Y-33.645
X55.195Y-26.66
X55.83Y-46.345
X57.1Y-23.485
X60.91Y-26.025
X67.26Y-29.835
T4
X175.845Y-36.83
X175.845Y-49.53
X178.385Y-36.83
X178.385Y-49.53
X180.925Y-36.83
X180.925Y-49.53
X183.465Y-36.83
X183.465Y-49.53
X186.005Y-36.83
X186.005Y-49.53
X188.545Y-36.83
X188.545Y-49.53
X191.085Y-36.83
X191.085Y-49.53
X193.625Y-36.83
X193.625Y-49.53
X199.11Y-36.83
X199.11Y-49.53
X201.65Y-36.83
X201.65Y-49.53
X204.19Y-36.83
X204.19Y-49.53
X206.73Y-36.83
X206.73Y-49.53
X209.27Y-36.83
X209.27Y-49.53
X211.81Y-36.83
X211.81Y-49.53
X214.35Y-36.83
X214.35Y-49.53
X216.89Y-36.83
X216.89Y-49.53
T5
X39.31Y-19.04
X41.85Y-19.04
X51.38Y-40.625
X51.38Y-43.165
X52.07Y-136.885
X52.07Y-141.885
X53.34Y-109.128
X53.34Y-114.128
X62.18Y-19.675
X64.72Y-19.675
X72.34Y-139.685
X72.34Y-142.225
X76.155Y-128.26
X78.695Y-128.26
X83.135Y-128.26
X85.045Y-92.695
X85.045Y-95.235
X85.045Y-97.775
X85.045Y-100.315
X85.045Y-102.855
X85.675Y-128.26
X87.585Y-92.695
X87.585Y-95.235
X87.585Y-97.775
X87.585Y-100.315
X87.585Y-102.855
X92.655Y-130.165
X92.66Y-126.228
X95.195Y-130.165
X95.2Y-126.228
X108.122Y-131.435
X108.127Y-135.88
X110.662Y-131.435
X110.667Y-135.88
X117.045Y-31.1
X117.045Y-33.64
X119.335Y-132.705
X121.875Y-132.705
X130.38Y-31.11
X130.38Y-33.65
X130.982Y-132.705
X133.523Y-132.705
X139.265Y-30.47
X141.805Y-30.47
X151.08Y-156.718
X151.08Y-159.257
X153.62Y-156.718
X153.62Y-159.257
X156.16Y-156.718
X156.16Y-159.257
X156.67Y-30.47
X158.7Y-156.718
X158.7Y-159.257
X159.21Y-30.47
X161.24Y-156.718
X161.24Y-159.257
X163.78Y-156.718
X163.78Y-159.257
X166.32Y-156.718
X166.32Y-159.257
X178.385Y-156.718
X178.385Y-159.257
X180.925Y-156.718
X180.925Y-159.257
X183.465Y-156.718
X183.465Y-159.257
X186.005Y-156.718
X186.005Y-159.257
X188.545Y-156.718
X188.545Y-159.257
X191.085Y-156.718
X191.085Y-159.257
X193.625Y-156.718
X193.625Y-159.257
X196.165Y-156.718
X196.165Y-159.257
X199.975Y-115.56
X199.975Y-118.1
X199.975Y-120.64
X199.975Y-123.18
X199.975Y-125.72
X199.975Y-128.26
X199.975Y-130.8
X199.975Y-133.34
X199.975Y-135.88
X199.975Y-138.42
X199.975Y-140.96
X199.975Y-143.5
X199.975Y-146.04
X199.975Y-148.58
T6
X40.64Y-99.18
X40.64Y-104.18
X40.64Y-109.18
X40.64Y-114.18
X40.64Y-135.93
X40.64Y-140.93
X42.365Y-152.87
X45.865Y-157.87
X49.365Y-152.87
X50.515Y-21.945
X50.966Y-99.05
X52.865Y-157.87
X55.515Y-18.445
X55.966Y-99.05
X56.365Y-152.87
X59.865Y-157.87
X75.595Y-21.905
X80.595Y-18.405
X88.93Y-21.905
X93.93Y-18.405
X102.265Y-21.905
X107.265Y-18.405
X117.085Y-18.415
X122.085Y-18.415
X123.395Y-40.69
X123.395Y-48.19
X145.785Y-18.515
X150.785Y-18.515
X155.785Y-18.515
X160.785Y-18.515
X178.965Y-20.08
X182.465Y-25.08
X185.965Y-20.08
X189.465Y-25.08
X202.865Y-20.08
X206.365Y-25.08
X208.81Y-153.065
X209.865Y-20.08
X212.31Y-158.065
X213.365Y-25.08
X215.81Y-153.065
X219.31Y-158.065
X227.05Y-22.175
X229.495Y-159.105
X232.05Y-18.675
X234.495Y-155.605
X240.385Y-22.175
X242.56Y-70.88
X242.56Y-84.85
X242.56Y-98.82
X242.56Y-112.79
X242.56Y-126.76
X242.56Y-140.73
X242.56Y-154.7
X245.385Y-18.675
X246.06Y-75.88
X246.06Y-89.85
X246.06Y-103.82
X246.06Y-117.79
X246.06Y-131.76
X246.06Y-145.73
X246.06Y-159.7
T7
X113.996Y-67.3
X114.504Y-74.412
X127.204Y-30.851
X132.03Y-70.983
X134.062Y-18.532
X135.332Y-44.059
X137.364Y-50.663
X149.513Y-46.925
X153.161Y-21.395
X153.29Y-46.374
X153.747Y-50.155
X168.098Y-47.107
X232.106Y-39.741
T0
M30
