G04 #@! TF.GenerationSoftware,KiCad,Pcbnew,6.0.7-f9a2dced07~116~ubuntu22.04.1*
G04 #@! TF.CreationDate,2022-08-10T15:47:32+03:00*
G04 #@! TF.ProjectId,Wirebonder,57697265-626f-46e6-9465-722e6b696361,rev?*
G04 #@! TF.SameCoordinates,Original*
G04 #@! TF.FileFunction,Legend,Bot*
G04 #@! TF.FilePolarity,Positive*
%FSLAX46Y46*%
G04 Gerber Fmt 4.6, Leading zero omitted, Abs format (unit mm)*
G04 Created by KiCad (PCBNEW 6.0.7-f9a2dced07~116~ubuntu22.04.1) date 2022-08-10 15:47:32*
%MOMM*%
%LPD*%
G01*
G04 APERTURE LIST*
G04 Aperture macros list*
%AMRoundRect*
0 Rectangle with rounded corners*
0 $1 Rounding radius*
0 $2 $3 $4 $5 $6 $7 $8 $9 X,Y pos of 4 corners*
0 Add a 4 corners polygon primitive as box body*
4,1,4,$2,$3,$4,$5,$6,$7,$8,$9,$2,$3,0*
0 Add four circle primitives for the rounded corners*
1,1,$1+$1,$2,$3*
1,1,$1+$1,$4,$5*
1,1,$1+$1,$6,$7*
1,1,$1+$1,$8,$9*
0 Add four rect primitives between the rounded corners*
20,1,$1+$1,$2,$3,$4,$5,0*
20,1,$1+$1,$4,$5,$6,$7,0*
20,1,$1+$1,$6,$7,$8,$9,0*
20,1,$1+$1,$8,$9,$2,$3,0*%
G04 Aperture macros list end*
%ADD10C,2.500000*%
%ADD11R,1.700000X1.700000*%
%ADD12O,1.700000X1.700000*%
%ADD13RoundRect,0.250000X-0.600000X0.600000X-0.600000X-0.600000X0.600000X-0.600000X0.600000X0.600000X0*%
%ADD14C,1.700000*%
%ADD15R,2.000000X2.000000*%
%ADD16C,2.000000*%
%ADD17R,1.600000X1.600000*%
%ADD18O,1.600000X1.600000*%
%ADD19R,2.400000X2.400000*%
%ADD20C,2.400000*%
G04 APERTURE END LIST*
%LPC*%
D10*
X40640000Y-99180000D03*
X40640000Y-104180000D03*
X40640000Y-109180000D03*
X40640000Y-114180000D03*
X145785000Y-18515000D03*
X150785000Y-18515000D03*
X155785000Y-18515000D03*
X160785000Y-18515000D03*
D11*
X117045000Y-31100000D03*
D12*
X117045000Y-33640000D03*
D11*
X87585000Y-102855000D03*
D12*
X85045000Y-102855000D03*
X87585000Y-100315000D03*
X85045000Y-100315000D03*
X87585000Y-97775000D03*
X85045000Y-97775000D03*
X87585000Y-95235000D03*
X85045000Y-95235000D03*
X87585000Y-92695000D03*
X85045000Y-92695000D03*
D10*
X117085000Y-18415000D03*
X122085000Y-18415000D03*
X189465000Y-25080000D03*
X185965000Y-20080000D03*
X182465000Y-25080000D03*
X178965000Y-20080000D03*
X245385000Y-18675000D03*
X240385000Y-22175000D03*
X246060000Y-145730000D03*
X242560000Y-140730000D03*
X40640000Y-140930000D03*
X40640000Y-135930000D03*
D13*
X196165000Y-156717500D03*
D14*
X196165000Y-159257500D03*
X193625000Y-156717500D03*
X193625000Y-159257500D03*
X191085000Y-156717500D03*
X191085000Y-159257500D03*
X188545000Y-156717500D03*
X188545000Y-159257500D03*
X186005000Y-156717500D03*
X186005000Y-159257500D03*
X183465000Y-156717500D03*
X183465000Y-159257500D03*
X180925000Y-156717500D03*
X180925000Y-159257500D03*
X178385000Y-156717500D03*
X178385000Y-159257500D03*
D10*
X246060000Y-103820000D03*
X242560000Y-98820000D03*
D11*
X85675000Y-128260000D03*
D12*
X83135000Y-128260000D03*
D10*
X232050000Y-18675000D03*
X227050000Y-22175000D03*
D11*
X156670000Y-30470000D03*
D12*
X159210000Y-30470000D03*
D11*
X64720000Y-19675000D03*
D12*
X62180000Y-19675000D03*
D10*
X42365000Y-152870000D03*
X45865000Y-157870000D03*
X49365000Y-152870000D03*
X52865000Y-157870000D03*
X56365000Y-152870000D03*
X59865000Y-157870000D03*
D11*
X139265000Y-30470000D03*
D12*
X141805000Y-30470000D03*
D10*
X213365000Y-25080000D03*
X209865000Y-20080000D03*
X206365000Y-25080000D03*
X202865000Y-20080000D03*
D15*
X53340000Y-114127677D03*
D16*
X53340000Y-109127677D03*
D13*
X166320000Y-156717500D03*
D14*
X166320000Y-159257500D03*
X163780000Y-156717500D03*
X163780000Y-159257500D03*
X161240000Y-156717500D03*
X161240000Y-159257500D03*
X158700000Y-156717500D03*
X158700000Y-159257500D03*
X156160000Y-156717500D03*
X156160000Y-159257500D03*
X153620000Y-156717500D03*
X153620000Y-159257500D03*
X151080000Y-156717500D03*
X151080000Y-159257500D03*
D15*
X52070000Y-141885354D03*
D16*
X52070000Y-136885354D03*
D10*
X107265000Y-18405000D03*
X102265000Y-21905000D03*
X229495000Y-159105000D03*
X234495000Y-155605000D03*
X246060000Y-159700000D03*
X242560000Y-154700000D03*
D11*
X95200000Y-126228000D03*
D12*
X92660000Y-126228000D03*
D11*
X95195000Y-130165000D03*
D12*
X92655000Y-130165000D03*
D11*
X78695000Y-128260000D03*
D12*
X76155000Y-128260000D03*
D11*
X39310000Y-19040000D03*
D12*
X41850000Y-19040000D03*
D11*
X72340000Y-139685000D03*
D12*
X72340000Y-142225000D03*
D17*
X216890000Y-36830000D03*
D18*
X214350000Y-36830000D03*
X211810000Y-36830000D03*
X209270000Y-36830000D03*
X206730000Y-36830000D03*
X204190000Y-36830000D03*
X201650000Y-36830000D03*
X199110000Y-36830000D03*
X199110000Y-49530000D03*
X201650000Y-49530000D03*
X204190000Y-49530000D03*
X206730000Y-49530000D03*
X209270000Y-49530000D03*
X211810000Y-49530000D03*
X214350000Y-49530000D03*
X216890000Y-49530000D03*
D11*
X199975000Y-115560000D03*
D12*
X199975000Y-118100000D03*
X199975000Y-120640000D03*
X199975000Y-123180000D03*
X199975000Y-125720000D03*
X199975000Y-128260000D03*
X199975000Y-130800000D03*
X199975000Y-133340000D03*
X199975000Y-135880000D03*
X199975000Y-138420000D03*
X199975000Y-140960000D03*
X199975000Y-143500000D03*
X199975000Y-146040000D03*
X199975000Y-148580000D03*
D17*
X193625000Y-36830000D03*
D18*
X191085000Y-36830000D03*
X188545000Y-36830000D03*
X186005000Y-36830000D03*
X183465000Y-36830000D03*
X180925000Y-36830000D03*
X178385000Y-36830000D03*
X175845000Y-36830000D03*
X175845000Y-49530000D03*
X178385000Y-49530000D03*
X180925000Y-49530000D03*
X183465000Y-49530000D03*
X186005000Y-49530000D03*
X188545000Y-49530000D03*
X191085000Y-49530000D03*
X193625000Y-49530000D03*
D11*
X110667500Y-135880000D03*
D12*
X108127500Y-135880000D03*
D10*
X123395000Y-40690000D03*
X123395000Y-48190000D03*
X80595000Y-18405000D03*
X75595000Y-21905000D03*
X208810000Y-153065000D03*
X212310000Y-158065000D03*
X215810000Y-153065000D03*
X219310000Y-158065000D03*
X246060000Y-131760000D03*
X242560000Y-126760000D03*
X246060000Y-117790000D03*
X242560000Y-112790000D03*
X93930000Y-18405000D03*
X88930000Y-21905000D03*
X55515000Y-18445000D03*
X50515000Y-21945000D03*
D11*
X133522500Y-132705000D03*
D12*
X130982500Y-132705000D03*
D11*
X130380000Y-33650000D03*
D12*
X130380000Y-31110000D03*
D11*
X51380000Y-40625000D03*
D12*
X51380000Y-43165000D03*
D10*
X246060000Y-75880000D03*
X242560000Y-70880000D03*
X246060000Y-89850000D03*
X242560000Y-84850000D03*
D19*
X50966041Y-99050000D03*
D20*
X55966041Y-99050000D03*
D11*
X121875000Y-132705000D03*
D12*
X119335000Y-132705000D03*
D11*
X110662500Y-131435000D03*
D12*
X108122500Y-131435000D03*
M02*
